<mxfile host="app.diagrams.net" modified="2023-07-25T18:05:56.556Z" agent="Mozilla/5.0 (Windows NT 10.0; Win64; x64) AppleWebKit/537.36 (KHTML, like Gecko) Chrome/115.0.0.0 Safari/537.36 Edg/115.0.1901.183" etag="_dPrjYaFAROuYai7AYZi" version="21.6.2" type="github">
  <diagram name="Page-1" id="cAQ2PPVyHnJ2Ly46RfSv">
    <mxGraphModel dx="2416" dy="957" grid="1" gridSize="10" guides="1" tooltips="1" connect="1" arrows="1" fold="1" page="1" pageScale="1" pageWidth="850" pageHeight="1100" math="0" shadow="0">
      <root>
        <mxCell id="0" />
        <mxCell id="1" parent="0" />
        <mxCell id="HSSL1Zx0RV7VmfYDASV5-6" style="edgeStyle=orthogonalEdgeStyle;rounded=0;orthogonalLoop=1;jettySize=auto;html=1;entryX=0;entryY=0.5;entryDx=0;entryDy=0;" edge="1" parent="1" source="HSSL1Zx0RV7VmfYDASV5-1" target="HSSL1Zx0RV7VmfYDASV5-4">
          <mxGeometry relative="1" as="geometry">
            <Array as="points">
              <mxPoint x="640" y="480" />
              <mxPoint x="640" y="660" />
            </Array>
          </mxGeometry>
        </mxCell>
        <mxCell id="HSSL1Zx0RV7VmfYDASV5-7" value="Give tracking detail" style="edgeLabel;html=1;align=center;verticalAlign=middle;resizable=0;points=[];" vertex="1" connectable="0" parent="HSSL1Zx0RV7VmfYDASV5-6">
          <mxGeometry x="0.0704" y="3" relative="1" as="geometry">
            <mxPoint as="offset" />
          </mxGeometry>
        </mxCell>
        <mxCell id="HSSL1Zx0RV7VmfYDASV5-19" style="edgeStyle=orthogonalEdgeStyle;rounded=0;orthogonalLoop=1;jettySize=auto;html=1;entryX=0.5;entryY=0;entryDx=0;entryDy=0;" edge="1" parent="1" source="HSSL1Zx0RV7VmfYDASV5-1" target="HSSL1Zx0RV7VmfYDASV5-4">
          <mxGeometry relative="1" as="geometry">
            <Array as="points">
              <mxPoint x="760" y="455" />
            </Array>
          </mxGeometry>
        </mxCell>
        <mxCell id="HSSL1Zx0RV7VmfYDASV5-20" value="Give order detail" style="edgeLabel;html=1;align=center;verticalAlign=middle;resizable=0;points=[];" vertex="1" connectable="0" parent="HSSL1Zx0RV7VmfYDASV5-19">
          <mxGeometry x="0.3811" y="-2" relative="1" as="geometry">
            <mxPoint as="offset" />
          </mxGeometry>
        </mxCell>
        <mxCell id="HSSL1Zx0RV7VmfYDASV5-28" style="edgeStyle=orthogonalEdgeStyle;rounded=0;orthogonalLoop=1;jettySize=auto;html=1;entryX=0;entryY=0.5;entryDx=0;entryDy=0;" edge="1" parent="1" source="HSSL1Zx0RV7VmfYDASV5-1" target="HSSL1Zx0RV7VmfYDASV5-5">
          <mxGeometry relative="1" as="geometry">
            <Array as="points">
              <mxPoint x="500" y="130" />
            </Array>
          </mxGeometry>
        </mxCell>
        <mxCell id="HSSL1Zx0RV7VmfYDASV5-29" value="Sale report" style="edgeLabel;html=1;align=center;verticalAlign=middle;resizable=0;points=[];" vertex="1" connectable="0" parent="HSSL1Zx0RV7VmfYDASV5-28">
          <mxGeometry x="0.4128" relative="1" as="geometry">
            <mxPoint as="offset" />
          </mxGeometry>
        </mxCell>
        <mxCell id="HSSL1Zx0RV7VmfYDASV5-30" style="edgeStyle=orthogonalEdgeStyle;rounded=0;orthogonalLoop=1;jettySize=auto;html=1;entryX=0.008;entryY=0.843;entryDx=0;entryDy=0;entryPerimeter=0;" edge="1" parent="1" source="HSSL1Zx0RV7VmfYDASV5-1" target="HSSL1Zx0RV7VmfYDASV5-5">
          <mxGeometry relative="1" as="geometry">
            <Array as="points">
              <mxPoint x="540" y="150" />
              <mxPoint x="700" y="150" />
            </Array>
          </mxGeometry>
        </mxCell>
        <mxCell id="HSSL1Zx0RV7VmfYDASV5-31" value="Stock report" style="edgeLabel;html=1;align=center;verticalAlign=middle;resizable=0;points=[];" vertex="1" connectable="0" parent="HSSL1Zx0RV7VmfYDASV5-30">
          <mxGeometry x="0.5983" y="1" relative="1" as="geometry">
            <mxPoint as="offset" />
          </mxGeometry>
        </mxCell>
        <mxCell id="HSSL1Zx0RV7VmfYDASV5-1" value="&lt;font style=&quot;font-size: 22px;&quot;&gt;San ruk shop&lt;/font&gt;" style="ellipse;whiteSpace=wrap;html=1;aspect=fixed;" vertex="1" parent="1">
          <mxGeometry x="300" y="330" width="250" height="250" as="geometry" />
        </mxCell>
        <mxCell id="HSSL1Zx0RV7VmfYDASV5-21" style="edgeStyle=orthogonalEdgeStyle;rounded=0;orthogonalLoop=1;jettySize=auto;html=1;entryX=0.5;entryY=0;entryDx=0;entryDy=0;" edge="1" parent="1" source="HSSL1Zx0RV7VmfYDASV5-2" target="HSSL1Zx0RV7VmfYDASV5-1">
          <mxGeometry relative="1" as="geometry">
            <Array as="points">
              <mxPoint x="425" y="150" />
            </Array>
          </mxGeometry>
        </mxCell>
        <mxCell id="HSSL1Zx0RV7VmfYDASV5-25" value="Add/modify/remove user detail" style="edgeLabel;html=1;align=center;verticalAlign=middle;resizable=0;points=[];" vertex="1" connectable="0" parent="HSSL1Zx0RV7VmfYDASV5-21">
          <mxGeometry x="-0.8093" y="2" relative="1" as="geometry">
            <mxPoint x="58" as="offset" />
          </mxGeometry>
        </mxCell>
        <mxCell id="HSSL1Zx0RV7VmfYDASV5-22" style="edgeStyle=orthogonalEdgeStyle;rounded=0;orthogonalLoop=1;jettySize=auto;html=1;entryX=0.609;entryY=0.015;entryDx=0;entryDy=0;entryPerimeter=0;" edge="1" parent="1" source="HSSL1Zx0RV7VmfYDASV5-2" target="HSSL1Zx0RV7VmfYDASV5-1">
          <mxGeometry relative="1" as="geometry">
            <Array as="points">
              <mxPoint x="452" y="130" />
            </Array>
          </mxGeometry>
        </mxCell>
        <mxCell id="HSSL1Zx0RV7VmfYDASV5-23" value="Add/modify/remove product" style="edgeLabel;html=1;align=center;verticalAlign=middle;resizable=0;points=[];" vertex="1" connectable="0" parent="HSSL1Zx0RV7VmfYDASV5-22">
          <mxGeometry x="-0.6089" y="-2" relative="1" as="geometry">
            <mxPoint as="offset" />
          </mxGeometry>
        </mxCell>
        <mxCell id="HSSL1Zx0RV7VmfYDASV5-26" style="edgeStyle=orthogonalEdgeStyle;rounded=0;orthogonalLoop=1;jettySize=auto;html=1;entryX=0.707;entryY=0.033;entryDx=0;entryDy=0;entryPerimeter=0;" edge="1" parent="1" source="HSSL1Zx0RV7VmfYDASV5-2" target="HSSL1Zx0RV7VmfYDASV5-1">
          <mxGeometry relative="1" as="geometry">
            <Array as="points">
              <mxPoint x="477" y="110" />
            </Array>
          </mxGeometry>
        </mxCell>
        <mxCell id="HSSL1Zx0RV7VmfYDASV5-27" value="manage order/Update tracking detail" style="edgeLabel;html=1;align=center;verticalAlign=middle;resizable=0;points=[];" vertex="1" connectable="0" parent="HSSL1Zx0RV7VmfYDASV5-26">
          <mxGeometry x="-0.8171" y="1" relative="1" as="geometry">
            <mxPoint x="70" as="offset" />
          </mxGeometry>
        </mxCell>
        <mxCell id="HSSL1Zx0RV7VmfYDASV5-2" value="Adminstrator" style="rounded=0;whiteSpace=wrap;html=1;" vertex="1" parent="1">
          <mxGeometry x="40" y="100" width="120" height="60" as="geometry" />
        </mxCell>
        <mxCell id="HSSL1Zx0RV7VmfYDASV5-8" style="edgeStyle=orthogonalEdgeStyle;rounded=0;orthogonalLoop=1;jettySize=auto;html=1;entryX=0;entryY=0.5;entryDx=0;entryDy=0;" edge="1" parent="1" source="HSSL1Zx0RV7VmfYDASV5-3" target="HSSL1Zx0RV7VmfYDASV5-1">
          <mxGeometry relative="1" as="geometry">
            <Array as="points">
              <mxPoint x="150" y="455" />
            </Array>
          </mxGeometry>
        </mxCell>
        <mxCell id="HSSL1Zx0RV7VmfYDASV5-10" value="Buy product" style="edgeLabel;html=1;align=center;verticalAlign=middle;resizable=0;points=[];" vertex="1" connectable="0" parent="HSSL1Zx0RV7VmfYDASV5-8">
          <mxGeometry x="-0.1362" y="-2" relative="1" as="geometry">
            <mxPoint as="offset" />
          </mxGeometry>
        </mxCell>
        <mxCell id="HSSL1Zx0RV7VmfYDASV5-11" style="edgeStyle=orthogonalEdgeStyle;rounded=0;orthogonalLoop=1;jettySize=auto;html=1;entryX=0.063;entryY=0.728;entryDx=0;entryDy=0;entryPerimeter=0;" edge="1" parent="1" source="HSSL1Zx0RV7VmfYDASV5-3" target="HSSL1Zx0RV7VmfYDASV5-1">
          <mxGeometry relative="1" as="geometry">
            <Array as="points">
              <mxPoint x="190" y="660" />
              <mxPoint x="190" y="512" />
            </Array>
          </mxGeometry>
        </mxCell>
        <mxCell id="HSSL1Zx0RV7VmfYDASV5-14" value="Buy Custom product" style="edgeLabel;html=1;align=center;verticalAlign=middle;resizable=0;points=[];" vertex="1" connectable="0" parent="HSSL1Zx0RV7VmfYDASV5-11">
          <mxGeometry x="0.0095" y="3" relative="1" as="geometry">
            <mxPoint x="18" y="73" as="offset" />
          </mxGeometry>
        </mxCell>
        <mxCell id="HSSL1Zx0RV7VmfYDASV5-15" style="edgeStyle=orthogonalEdgeStyle;rounded=0;orthogonalLoop=1;jettySize=auto;html=1;entryX=0.001;entryY=0.409;entryDx=0;entryDy=0;entryPerimeter=0;" edge="1" parent="1" source="HSSL1Zx0RV7VmfYDASV5-3" target="HSSL1Zx0RV7VmfYDASV5-1">
          <mxGeometry relative="1" as="geometry">
            <Array as="points">
              <mxPoint x="90" y="432" />
              <mxPoint x="260" y="432" />
            </Array>
          </mxGeometry>
        </mxCell>
        <mxCell id="HSSL1Zx0RV7VmfYDASV5-16" value="Payment (Slip)" style="edgeLabel;html=1;align=center;verticalAlign=middle;resizable=0;points=[];" vertex="1" connectable="0" parent="HSSL1Zx0RV7VmfYDASV5-15">
          <mxGeometry x="-0.6392" y="-2" relative="1" as="geometry">
            <mxPoint as="offset" />
          </mxGeometry>
        </mxCell>
        <mxCell id="HSSL1Zx0RV7VmfYDASV5-3" value="Customer" style="rounded=0;whiteSpace=wrap;html=1;" vertex="1" parent="1">
          <mxGeometry x="40" y="630" width="120" height="60" as="geometry" />
        </mxCell>
        <mxCell id="HSSL1Zx0RV7VmfYDASV5-4" value="Customer" style="rounded=0;whiteSpace=wrap;html=1;" vertex="1" parent="1">
          <mxGeometry x="700" y="630" width="120" height="60" as="geometry" />
        </mxCell>
        <mxCell id="HSSL1Zx0RV7VmfYDASV5-5" value="Adminstrator" style="rounded=0;whiteSpace=wrap;html=1;" vertex="1" parent="1">
          <mxGeometry x="700" y="100" width="120" height="60" as="geometry" />
        </mxCell>
        <mxCell id="HSSL1Zx0RV7VmfYDASV5-33" value="San ruk Context Diagram" style="text;whiteSpace=wrap;fontSize=18;" vertex="1" parent="1">
          <mxGeometry x="320" y="40" width="210" height="40" as="geometry" />
        </mxCell>
      </root>
    </mxGraphModel>
  </diagram>
</mxfile>
